<?xml version="1.0" encoding="utf-8"?>
<!-- Generator: Adobe Illustrator 25.3.1, SVG Export Plug-In . SVG Version: 6.00 Build 0)  -->
<svg version="1.1" id="Camada_1" xmlns="http://www.w3.org/2000/svg" xmlns:xlink="http://www.w3.org/1999/xlink" x="0px" y="0px"
	 viewBox="0 0 155 48" style="enable-background:new 0 0 155 48;" xml:space="preserve">
<style type="text/css">
	.st0{fill:none;stroke:#5280E2;stroke-width:4;}
	.st1{fill:#FFFFFF;}
</style>
<line class="st0" x1="2" y1="0" x2="2" y2="46"/>
<g>
	<path class="st1" d="M15.3,13.2c0-1.3,1-2.3,2.3-2.3c1.2,0,2.2,1,2.2,2.3c0,1.3-1,2.3-2.2,2.3C16.3,15.4,15.3,14.4,15.3,13.2z
		 M15.8,17.7h3.5v17.1h-3.5V17.7z"/>
	<path class="st1" d="M24.5,20.6h-2v-2.9h2v-4.3h3.6v4.3h4.2v2.9h-4.2v9.5c0,1.3,0.5,1.8,2,1.8h2.2v3h-2.8c-3,0-4.9-1.3-4.9-4.8
		V20.6z"/>
	<path class="st1" d="M42.5,17.4c2.9,0,4.9,1.4,5.9,2.8v-2.5H52v17.1h-3.6v-2.6c-1.1,1.5-3.1,2.8-6,2.8c-4.4,0-8-3.6-8-8.9
		C34.4,20.9,37.9,17.4,42.5,17.4z M43.2,20.5c-2.6,0-5.2,2-5.2,5.7c0,3.7,2.6,5.8,5.2,5.8c2.7,0,5.2-2.1,5.2-5.8
		C48.4,22.6,45.9,20.5,43.2,20.5z"/>
	<path class="st1" d="M56.6,11.8h3.5v23h-3.5V11.8z"/>
	<path class="st1" d="M72.3,35.1c-4.9,0-8.6-3.5-8.6-8.9c0-5.4,3.9-8.8,8.7-8.8c4.9,0,8.7,3.5,8.7,8.8
		C81.2,31.6,77.2,35.1,72.3,35.1z M72.3,32c2.6,0,5.3-1.9,5.3-5.8c0-3.9-2.5-5.8-5.2-5.8c-2.7,0-5.1,1.9-5.1,5.8
		C67.3,30.1,69.6,32,72.3,32z"/>
	<path class="st1" d="M82.7,17.7h3.6l3.6,13.8l3.6-13.8h3.7l3.5,13.7l3.5-13.7h3.5l-5.3,17.1h-3.7l-3.5-12.7l-3.5,12.7H88L82.7,17.7
		z"/>
	<path class="st1" d="M109.9,13.2c0-1.3,1-2.3,2.3-2.3c1.2,0,2.2,1,2.2,2.3c0,1.3-1,2.3-2.2,2.3C110.9,15.4,109.9,14.4,109.9,13.2z
		 M110.4,17.7h3.5v17.1h-3.5V17.7z"/>
	<path class="st1" d="M130.8,25.3c0-3.1-1.7-4.8-4.3-4.8c-2.6,0-4.3,1.6-4.3,4.8v9.6h-3.5V17.7h3.5v2c1.2-1.4,3-2.2,5.1-2.2
		c4,0,7,2.5,7,7.3v10.1h-3.5V25.3z"/>
	<path class="st1" d="M145,35.1c-4.1,0-7-2.4-7.2-5.5h3.7c0.1,1.4,1.5,2.6,3.4,2.6c2.1,0,3.1-0.9,3.1-2.1c0-3.4-10-1.4-10-7.7
		c0-2.7,2.6-4.9,6.6-4.9c3.9,0,6.4,2.1,6.6,5.5h-3.5c-0.1-1.5-1.3-2.5-3.2-2.5c-1.9,0-2.9,0.8-2.9,1.9c0,3.5,9.7,1.5,9.9,7.7
		C151.6,32.9,149.1,35.1,145,35.1z"/>
</g>
</svg>
