<svg width="91" height="90" viewBox="0 0 91 90" fill="none" xmlns="http://www.w3.org/2000/svg">
<rect width="91" height="90" rx="45" fill="#212226" fill-opacity="0.6"/>
<path d="M61.25 25H29.9167C27.7536 25 26 26.7536 26 28.9167V36.75C26 38.9131 27.7536 40.6667 29.9167 40.6667H61.25C63.4131 40.6667 65.1667 38.9131 65.1667 36.75V28.9167C65.1667 26.7536 63.4131 25 61.25 25Z" stroke="#15CDCB" stroke-width="4" stroke-linecap="round" stroke-linejoin="round"/>
<path d="M61.25 48.5H29.9167C27.7536 48.5 26 50.2536 26 52.4167V60.25C26 62.4131 27.7536 64.1667 29.9167 64.1667H61.25C63.4131 64.1667 65.1667 62.4131 65.1667 60.25V52.4167C65.1667 50.2536 63.4131 48.5 61.25 48.5Z" stroke="#15CDCB" stroke-width="4" stroke-linecap="round" stroke-linejoin="round"/>
<path d="M33.8333 32.8333H33.8529" stroke="#15CDCB" stroke-width="4" stroke-linecap="round" stroke-linejoin="round"/>
<path d="M33.8333 56.3333H33.8529" stroke="#15CDCB" stroke-width="4" stroke-linecap="round" stroke-linejoin="round"/>
</svg>
